<?xml version="1.0"?>
<svg version="1.1" xmlns="http://www.w3.org/2000/svg" width="400" height="200" style="border: dashed 2px #aaa"><path fill="#000000" d="M54.55,108.6q-1.85,0.75-3.175,0.75t-1.325-0.55q0-0.35,1.475-0.4t2.125-0.35q1.9-1,1.9-2.95q0-1-0.55-2.1q-1.6-2.85-7.75-2.85q-3.55,0-7.1,1.075t-5.95,3.3t-2.4,4.125q0,2.9,5.75,4.25l5.9,1.1q3.55,0.65,5.3,1.8q2.3,1.4,2.3,4q0,1.05-0.35,2.25q-1.6,5.4-8.25,8.25q-5.55,2.45-13.1,2.45q-2.15,0-3.75-0.2q1.6,0.9,4.2,1.55q0.2,0.05,0.2,0.2q0,0.45-1.05,0.45q-2.05,0-5.1-2.45q-4.15-0.65-6.2-2.3q-1.3-1.05-2.4-3.1t-1.1-3.7t0.65-2.75q1.5-2.65,3.8-2.65q1.75,0,2.05,2.95q0.7,5.7,0.95,6.5q0.75,2.45,2.55,4.15q2.1,0.45,4.55,0.45q5.4,0,10.6-2.15t7.5-6.1q0.95-1.55,0.95-2.75q0-2.35-4.15-3.65l-8.8-2q-2.7-0.65-4.325-2.15t-1.625-3.45q0-3,3.75-6q2.85-2.3,6.975-3.575t8.1-1.275t6.575,1.15q3.35,1.55,3.35,4.525t-3.05,4.175z M22.35,130.9q-2.9-3.2-3.7-8.75q-0.45-3.15-0.85-3.15t-0.75,0.225t-0.7,0.975t-0.35,1.95q0,3.85,2.7,6.6q1.35,1.4,3.65,2.15z M57.1585,130.65q-0.55,0-1-0.15q-3.2-0.9-3.2-3.6q0-3.5,4.4-8.1t7.9-4.6q1.15,0,1.875,0.625t0.725,1.525q0,2.8-4.225,5.35t-6.875,2.55q-0.4,0-0.7-0.1q-0.75,1.35-0.75,2.85q0,2.6,2.475,2.6t6.425-3.35q3.05-2.45,5.2-5.2q0.45-0.6,0.775-0.6t0.325,0.3t-0.4,0.85q-2.7,3.55-6.5,6.3t-6.45,2.75z M66.6085,116.25q0-0.6-1.275-0.6t-3.625,1.95q-3.15,2.6-4.9,5.45q0.3,0.1,0.65,0.1q1.9,0,5.075-2.025t3.975-4.425q0.1-0.25,0.1-0.45z M86.267,115.05l0.7-0.15q0.55,0,1.05,0.45t0.5,0.7t-3.1,4.825t-3.1,6.375q0,0.15,0.05,0.3q0.25,1.15,1.1,1.15q2.6,0,9.5-8.6q0.15-0.2,0.35-0.2t0.2,0.375t-0.45,0.975q-6.4,8.55-9.75,8.55q-0.45,0-0.85-0.15q-2.2-0.85-2.2-3.3q0-0.85,0.2-1.7l-3.1,3q-2.95,2.6-4.275,2.6t-2.525-0.85q-1.35-1-1.35-2.65q0-3.65,5.1-8.725t9.35-5.075q1.65,0,2.2,1.15q0.15,0.4,0.25,0.675t0.15,0.275z M71.317,127.35q0,1.8,1.25,1.8q2.9,0,7.9-6.35l5.3-7.3q-0.4-0.7-1.3-0.7q-3.05,0-8.1,4.725t-5.05,7.825z M100.5255,114.2q1.35,0,1.35,1.05q0,0.3-0.15,0.6q-4.5,6.25-5.4,9.45q11.65-11.65,14.15-11.65q0.25-0.05,0.45-0.05q1.4,0,1.4,1.25q0,0.25-0.1,0.5t-2,2.7q-2.2,2.6-3.725,5t-1.525,4t0.7,1.6q2.2,0,7.65-6.05q0.1-0.1,0.35-0.45q0.75-0.9,0.9-0.9t0.15,0.5t-0.7,1.3q-6.2,7.05-8.8,7.05q-2.45,0-2.45-2.7t2-6.2l3.2-5.2q-3.4,2.5-6.05,5.475t-4.825,5.775t-2.525,2.8q-0.75,0-1.175-0.625t-0.425-1.55t0.65-2.475t1.65-3.75l-3,3.15q-1.1,1.1-1.375,1.1t-0.275-0.325t0.4-0.725q1.85-1.85,3.2-3.55q1.3-1.7,5.35-6.5q0.45-0.6,0.95-0.6z M148.0925,127.95q-1.2,1.85-1.2,2.4t0.45,0.8q0,0.05-0.9,0.75q-0.8,0.4-1.8,0.4t-1.45-0.225t-0.3-0.725q0.7-2.25,5.25-9.025t6.1-9.575q3.35-6.05,3.35-9.65q0-1.5-0.5-2.55q-1-2.05-4.75-2.05q-5.85,0-12.1,5.05q-5,4.05-7.65,8.575t-2.65,8.075q0,5.1,4.5,5.2l0.4,0q5.75,0,8.9-4.15q1.2-1.65,1.2-2.8t-0.5-1.45q-0.05-0.05-0.05-0.2t0.3-0.15q1.3,0,1.3,1.7q0,1.05-1.025,2.85t-3.625,3.4t-6.05,1.6t-5.5-2.15t-2.05-5.65q0-7.9,10.3-16.15q2.65-2.1,6.975-3.45t8.275-1.35t5.375,1.375t1.425,3.675q0,3.5-2.85,9.45q-0.9,1.85-4.05,6.75l3.85-4.9q2.8-3.65,9.7-10.4q1.5-1.45,3.325-2.425t3.125-0.975q1.8,0,1.8,1.9q0,1.65-1.575,4.975t-3.175,6.3t-1.95,3.9t-0.5,1.475t-0.2,0.6q0.15-0.25,3.3-3.825t9.3-8.925l8-6.6q0.95-0.8,1.7-0.8t1.225,1.25t0.475,2.025t-2.4,3.225q-6.25,6.4-10.6,14t-4.35,10.85q0,0.85,0.3,1.175t0.95,0.2t2.725-1.025t2.725-1.05q0.25,0.1,0.25,0.25q0,0.75-2.625,2.1t-3.95,1.35t-1.625-0.45q-0.9-1.3-0.9-3.15q0-4.3,4.6-12.35q2.95-5.05,9.1-13.6q-4.8,3.9-13,11.95t-10.75,12.6q-1.3,2.35-3.15,2.35q-0.85,0-0.85-0.6q0-0.2,1.025-1.8t4.525-7.5q8.6-14.95,8.6-18q0-0.8-0.55-0.8q-0.8,0-2.35,1.35q-5.55,4.65-11.8,12.15t-9.4,12.45z M202.551,115.05l0.7-0.15q0.55,0,1.05,0.45t0.5,0.7t-3.1,4.825t-3.1,6.375q0,0.15,0.05,0.3q0.25,1.15,1.1,1.15q2.6,0,9.5-8.6q0.15-0.2,0.35-0.2t0.2,0.375t-0.45,0.975q-6.4,8.55-9.75,8.55q-0.45,0-0.85-0.15q-2.2-0.85-2.2-3.3q0-0.85,0.2-1.7l-3.1,3q-2.95,2.6-4.275,2.6t-2.525-0.85q-1.35-1-1.35-2.65q0-3.65,5.1-8.725t9.35-5.075q1.65,0,2.2,1.15q0.15,0.4,0.25,0.675t0.15,0.275z M187.601,127.35q0,1.8,1.25,1.8q2.9,0,7.9-6.35l5.3-7.3q-0.4-0.7-1.3-0.7q-3.05,0-8.1,4.725t-5.05,7.825z M218.9595,130.25q-3.75,0-3.75-4.15q0-2.1,1.1-4.6t2.4-4.2q-0.25,0.05-0.65,0.05q-1.2,0-2-1.7l-3.7,4.8q-3.1,3.85-3.6,3.85q-0.25,0-0.25-0.2q0-0.5,0.85-1.45q4.35-5.05,6.15-8.55q1.15-4.35,2.9-4.35q1.15,0,1.15,1t-1.25,2.55l-1.2,1.6q0,1.05,1.55,1.05q0.9,0,2-0.65l1.3-0.8q0.1-0.05,0.5-0.05t0.85,0.5t0.3,0.9l-3.45,4.35q-3.2,4.1-3.2,6.475t2.2,2.375q2.3,0,5.65-2.45q2-1.45,3.65-3.25q1.55-1.8,1.7-1.8q0.35,0,0.35,0.375t-0.45,0.875l-1.6,1.8q-1.35,1.4-3,2.7q-3.95,2.95-6.5,2.95z M227.868,135.8q2.4,3,4.15,3q2.85,0,6.15-4.55q2.4-3.35,4.7-8.45l1.9-4.6l-7.35,5.75q-3.4,2.65-5.45,2.65q-1.1,0-1.75-0.75t-0.65-1.7q0-2.15,3.7-7.075t5.4-4.925t1.7,1.15q0,0.45-4.425,5.175t-4.425,6.375q0,0.65,0.85,0.65q1.6,0,6.425-3.75t7.275-6.2q0.55-0.65,1.55-1.95q0.95-1.1,2.1-1.1t1.15,1.1q0,0.2-2.25,3.55t-2.35,3.55q-1.55,3-4.75,8.75q-4.85,7.8-9.7,7.8q-1.6,0-2.8-1.375t-1.15-3.075z M280.285,142.7q-1.9,0-3.725-1.35t-1.825-3q0-1.05,1.05-1.05q0.25,0,0.75,0.1q0.6,2.1,1,2.85q0.85,1.35,2.9,1.35q6.15,0,15.1-16.8l9-16.05q-9.65,10.3-13.675,14.325t-5.525,4.925q-3,1.8-4.95,1.8q-2.85,0-2.85-3.35q0-4,3.4-8.25q0.25-0.3,2.125-2.575t4.4-5.425t4.2-6.075t1.675-4.1t-0.7-1.525q-1.45-0.75-3.3-0.75q-5.3,0-14.65,6.4q-3.9,2.65-6.2,6.15t-2.3,6.45t2.85,3.7q0.9,0.25,1.75,0.25q2.55,0,5.65-2.2q3.65-2.45,4.1-2.6q-0.5,1.85-3.95,4.05q-3.8,2.35-7.1,2.35q-0.45,0-1.675-0.175t-2.425-1.825t-1.2-4q0-6.8,9.95-13.9q2.9-2.1,7.65-3.8t7.675-1.7t4.45,0.925t1.525,2.95t-2.8,6.3t-8.85,11.625q-1.25,1.45-2.3,3.775t-1.05,3.7t1.075,1.375t3.225-1.55q6.1-4.35,12.175-10.55t8.925-10.4q2.05-2.95,4.35-2.95q0.8,0,0.8,0.5q0,0.1-0.1,0.4q-6.3,11-17.15,29.2q-3.2,5.25-6.825,7.875t-6.625,2.625z M322.8435,119.4q0,1.75-3.35,5.85q-3.95,4.85-6.75,4.85l-0.8,0q-1.3,0-2.05-1.35q-0.6-0.95-0.6-2.1q0-3,4.375-8.425t7.075-5.425q2.55,0,2.55,2.7q0,0.7-0.25,1.8q0.05,0.15,0.95,0.15t2.75-0.95q-0.05,0.85-3.95,2.45q0.05,0.2,0.05,0.45z M319.5935,116.8q-1.7,0-4.825,4t-3.125,5.9t1.2,1.9q2.15,0,5.45-3.9t3.3-5.6q-0.8-0.45-2-2.3z M340.052,130.3q-0.25,0.05-1.075,0.05t-1.65-0.65t-0.825-1.675t0.375-2.275t0.525-1.9q-5.75,6.7-9,6.7q-2.05,0-2.25-2.55l0-0.35q0-2.15,2.6-5.8q-1.45,1.3-2.95,3q-0.2,0.2-0.5,0.2q-0.2,0-0.2-0.25t0.45-0.85l6.9-8.1q1.3-1.5,2.65-1.5t1.35,0.9q0,0.35-0.3,0.65q-2,1.85-5.025,6.15t-3.025,6.35q0,0.9,0.6,0.9q2.1,0,6.1-4.15q1.4-1.4,5.2-6.175t5-4.775q1.8,0,1.8,1.4q0,0.5-2.1,2.9q-2.85,3.45-4.35,5.625t-1.5,3.525t0.75,1.35q0.35,0,0.8-0.2q3.45-1.5,8.25-7q0.3-0.35,0.6-0.35t0.3,0.325t-0.35,0.725q-2.15,2.5-5.05,5.025t-4.1,2.775z M357.5605,114.2q1.35,0,1.35,1.05q0,0.3-0.15,0.6q-4.5,6.25-5.4,9.45q11.65-11.65,14.15-11.65q0.25-0.05,0.45-0.05q1.4,0,1.4,1.25q0,0.25-0.1,0.5t-2,2.7q-2.2,2.6-3.725,5t-1.525,4t0.7,1.6q2.2,0,7.65-6.05q0.1-0.1,0.35-0.45q0.75-0.9,0.9-0.9t0.15,0.5t-0.7,1.3q-6.2,7.05-8.8,7.05q-2.45,0-2.45-2.7t2-6.2l3.2-5.2q-3.4,2.5-6.05,5.475t-4.825,5.775t-2.525,2.8q-0.75,0-1.175-0.625t-0.425-1.55t0.65-2.475t1.65-3.75l-3,3.15q-1.1,1.1-1.375,1.1t-0.275-0.325t0.4-0.725q1.85-1.85,3.2-3.55q1.3-1.7,5.35-6.5q0.45-0.6,0.95-0.6z M388.569,114.75l0.7-0.15q0.65,0,1.025,0.4t0.375,0.625t-0.05,0.5t-1.45,2.525q-1.75,3.05-2.9,5.15q-4.05,7.55-6.2,10.35q-4.6,6.1-8.75,6.1q-1.45,0-2.525-1.225t-1.125-2.725q0.15-0.6,0.45-0.6q0.15,0,0.25,0.35q0.25,1.3,0.95,2t1.4,0.7q2.85,0,6.1-3.75q2.15-2.5,4.75-7.3l2.5-4.95l-3.75,3.8q-3.6,3.45-4.925,3.45t-2.525-0.9q-1.35-1-1.35-2.65q0-3.65,5.125-8.7t9.325-5.05q1.7,0,2.2,1.1q0.15,0.4,0.25,0.675t0.15,0.275z M373.619,127.05q0,1.8,1.25,1.8q2.9,0,7.9-6.35l5.3-7.3q-0.3-0.7-1.25-0.7q-3.1,0-8.15,4.775t-5.05,7.775z"/><path fill="#" d=""/></svg>
